# xmcd CD database file
#
# Track frame offsets:
#	150
#	31632
#	62459
#	94231
#	126125
#	157797
#	189492
#	221149
#
# Disc length: 3379 seconds
#
# Revision: 0
# Processed by: cddbd v1.5.2PL0 Copyright (c) Steve Scherf et al.
# Submitted via: CDex 1.51
#
DISCID=600d3108
DTITLE=Sandra Ribas - Carlos Amador - Viaje al centro de uno mismo
DYEAR=1900
DGENRE=New Age
TTITLE0=Muladhara
TTITLE1=Svadhishthana
TTITLE2=Manipura
TTITLE3=Anahata
TTITLE4=Vishudda
TTITLE5=Ajna
TTITLE6=Sahasrara
TTITLE7=La Voz de Dios
EXTD=
EXTT0=
EXTT1=
EXTT2=
EXTT3=
EXTT4=
EXTT5=
EXTT6=
EXTT7=
PLAYORDER=
